<svg xmlns="http://www.w3.org/2000/svg" xmlns:xlink="http://www.w3.org/1999/xlink" width="500" zoomAndPan="magnify"
  viewBox="0 0 375 374.999991" height="500" preserveAspectRatio="xMidYMid meet" version="1.0">
  <defs>
    <g />
  </defs>
  <path stroke-linecap="butt" transform="matrix(0.75, 0, 0, 0.75, 60.287168, 223.904649)" fill="none"
    stroke-linejoin="miter" d="M 0.00252635 2.002134 L 339.231715 2.002134 " stroke="#000000" stroke-width="4"
    stroke-opacity="1" stroke-miterlimit="4" />
  <g fill="#000000" fill-opacity="1">
    <g transform="translate(10.823437, 203.999987)">
      <g>
        <path
          d="M 17.203125 -23.921875 C 21.390625 -24.8125 22.78125 -29.1875 22.78125 -31.921875 L 22.78125 -34.203125 C 22.78125 -40.03125 18.015625 -44.359375 12.625 -44.421875 L 3.546875 -44.421875 C 1.328125 -44.421875 0 -42.953125 0 -40.796875 L 0 -3.609375 C 0 -1.328125 1.328125 0.0625 3.546875 0.0625 L 13.453125 0.0625 C 18.59375 0 23.484375 -4.703125 23.484375 -10.09375 L 23.484375 -15.484375 C 23.484375 -18.71875 21.578125 -23.15625 17.203125 -23.921875 Z M 4.0625 -40.796875 L 4.0625 -40.296875 L 12.625 -40.296875 C 15.921875 -40.296875 18.65625 -37.5625 18.65625 -34.203125 L 18.65625 -31.921875 C 18.65625 -28.6875 16.4375 -25.890625 13.328125 -25.890625 L 4.0625 -25.890625 L 4.0625 -40.296875 L 3.546875 -40.296875 Z M 19.359375 -10.09375 C 19.359375 -6.859375 16.5 -4.1875 13.453125 -4.0625 L 4.0625 -4.0625 L 4.0625 -3.609375 C 4.0625 -3.875 3.875 -4 3.6875 -4.0625 L 4.0625 -4.0625 L 4.0625 -21.703125 L 13.328125 -21.703125 C 16.625 -21.703125 19.359375 -18.90625 19.359375 -15.484375 Z M 19.359375 -10.09375 " />
      </g>
    </g>
  </g>
  <g fill="#000000" fill-opacity="1">
    <g transform="translate(40.198622, 203.999987)">
      <g>
        <path
          d="M 19.484375 -9.515625 L 19.484375 -21.0625 C 19.484375 -27.734375 14.46875 -30.90625 9.390625 -30.90625 C 4.375 -30.90625 -0.703125 -27.734375 -0.703125 -21.0625 L -0.703125 -9.515625 C -0.703125 -2.921875 4.3125 0.3125 9.390625 0.3125 C 14.40625 0.3125 19.484375 -2.921875 19.484375 -9.515625 Z M 15.421875 -21.0625 L 15.421875 -9.515625 C 15.421875 -5.703125 12.4375 -3.8125 9.390625 -3.8125 C 6.40625 -3.8125 3.359375 -5.703125 3.359375 -9.515625 L 3.359375 -21.0625 C 3.359375 -24.8125 6.40625 -26.84375 9.390625 -26.84375 C 12.4375 -26.84375 15.421875 -24.8125 15.421875 -21.0625 Z M 15.421875 -21.0625 " />
      </g>
    </g>
  </g>
  <g fill="#000000" fill-opacity="1">
    <g transform="translate(65.703644, 203.999987)">
      <g>
        <path
          d="M 4 -10.03125 L 4 -43.46875 L 0 -43.46875 L 0 -10.03125 C 0 -4.1875 4.625 0 10.71875 0 L 10.71875 -4 C 6.921875 -4 4 -6.71875 4 -10.03125 Z M 4 -10.03125 " />
      </g>
    </g>
  </g>
  <g fill="#000000" fill-opacity="1">
    <g transform="translate(79.978843, 203.999987)">
      <g>
        <path
          d="M 4 -10.03125 L 4 -43.46875 L 0 -43.46875 L 0 -10.03125 C 0 -4.1875 4.625 0 10.71875 0 L 10.71875 -4 C 6.921875 -4 4 -6.71875 4 -10.03125 Z M 4 -10.03125 " />
      </g>
    </g>
  </g>
  <g fill="#000000" fill-opacity="1">
    <g transform="translate(94.254042, 203.999987)">
      <g>
        <path
          d="M 19.609375 3.234375 L 19.609375 -30.453125 L 15.546875 -30.453125 L 15.546875 -8.375 C 15.546875 -5.390625 12.9375 -3.8125 9.96875 -3.8125 C 6.859375 -3.75 4.0625 -6.21875 4.0625 -9.328125 L 4.0625 -30.453125 L 0 -30.453125 L 0 -9.328125 C 0 -4 4.765625 0.25 9.96875 0.25 C 11.609375 0.25 14.40625 -0.375 15.546875 -2.984375 L 15.546875 3.234375 C 15.546875 6.34375 13.015625 8.890625 9.90625 8.890625 C 8.375 8.890625 6.34375 8 4.703125 6.65625 L 2.03125 9.765625 C 4.25 11.609375 7.546875 13.015625 9.90625 13.015625 C 15.109375 13.015625 19.546875 8.75 19.609375 3.234375 Z M 19.609375 3.234375 " />
      </g>
    </g>
  </g>
  <g fill="#000000" fill-opacity="1">
    <g transform="translate(120.012849, 203.999987)">
      <g>
        <path
          d="M 19.484375 -40.296875 L 19.484375 -44.421875 L 3.75 -44.421875 C 1.90625 -44.421875 0.0625 -42.890625 0.0625 -40.796875 L 0.0625 0 L 4.1875 0 L 4.1875 -20.75 L 18.46875 -20.75 L 18.46875 -24.875 L 4.1875 -24.875 L 4.1875 -40.171875 Z M 19.484375 -40.296875 " />
      </g>
    </g>
  </g>
  <g fill="#000000" fill-opacity="1">
    <g transform="translate(145.137195, 203.999987)">
      <g>
        <path
          d="M 19.484375 -9.515625 L 19.484375 -21.0625 C 19.484375 -27.734375 14.46875 -30.90625 9.390625 -30.90625 C 4.375 -30.90625 -0.703125 -27.734375 -0.703125 -21.0625 L -0.703125 -9.515625 C -0.703125 -2.921875 4.3125 0.3125 9.390625 0.3125 C 14.40625 0.3125 19.484375 -2.921875 19.484375 -9.515625 Z M 15.421875 -21.0625 L 15.421875 -9.515625 C 15.421875 -5.703125 12.4375 -3.8125 9.390625 -3.8125 C 6.40625 -3.8125 3.359375 -5.703125 3.359375 -9.515625 L 3.359375 -21.0625 C 3.359375 -24.8125 6.40625 -26.84375 9.390625 -26.84375 C 12.4375 -26.84375 15.421875 -24.8125 15.421875 -21.0625 Z M 15.421875 -21.0625 " />
      </g>
    </g>
  </g>
  <g fill="#000000" fill-opacity="1">
    <g transform="translate(170.642218, 203.999987)">
      <g>
        <path
          d="M 19.484375 -9.515625 L 19.484375 -21.0625 C 19.484375 -27.734375 14.46875 -30.90625 9.390625 -30.90625 C 4.375 -30.90625 -0.703125 -27.734375 -0.703125 -21.0625 L -0.703125 -9.515625 C -0.703125 -2.921875 4.3125 0.3125 9.390625 0.3125 C 14.40625 0.3125 19.484375 -2.921875 19.484375 -9.515625 Z M 15.421875 -21.0625 L 15.421875 -9.515625 C 15.421875 -5.703125 12.4375 -3.8125 9.390625 -3.8125 C 6.40625 -3.8125 3.359375 -5.703125 3.359375 -9.515625 L 3.359375 -21.0625 C 3.359375 -24.8125 6.40625 -26.84375 9.390625 -26.84375 C 12.4375 -26.84375 15.421875 -24.8125 15.421875 -21.0625 Z M 15.421875 -21.0625 " />
      </g>
    </g>
  </g>
  <g fill="#000000" fill-opacity="1">
    <g transform="translate(196.14724, 203.999987)">
      <g>
        <path
          d="M 9.96875 0.4375 C 12.125 0.4375 14.59375 -0.125 15.734375 -2.796875 L 16.25 0 L 19.734375 0 L 19.734375 -43.71875 L 15.671875 -43.71875 L 15.671875 -27.609375 C 14.53125 -29.828125 11.859375 -30.71875 9.96875 -30.78125 C 4.625 -30.90625 0 -26.265625 0 -21.1875 L 0 -9.203125 C 0 -4.0625 4.703125 0.4375 9.96875 0.4375 Z M 4.0625 -9.203125 L 4.0625 -21.1875 C 4.0625 -24.296875 6.796875 -26.65625 9.96875 -26.65625 C 13.640625 -26.65625 15.609375 -24.5 15.671875 -21.453125 L 15.671875 -8.5 C 15.671875 -5.84375 13.203125 -3.609375 9.96875 -3.609375 C 6.71875 -3.609375 4.0625 -6.21875 4.0625 -9.203125 Z M 4.0625 -9.203125 " />
      </g>
    </g>
  </g>
  <g fill="#000000" fill-opacity="1">
    <g transform="translate(222.032928, 203.999987)">
      <g>
        <path
          d="M 22.90625 -31.984375 L 22.90625 -0.25 L 22.96875 -0.25 L 22.96875 0 L 27.03125 0 L 27.03125 -41.25 C 26.84375 -45.625 21.640625 -45.75 20.4375 -42.140625 C 17.953125 -34.578125 15.859375 -26.078125 13.265625 -18.28125 C 10.84375 -26.59375 9.328125 -33.625 6.59375 -41.9375 C 5.703125 -45.375 -0.0625 -45.4375 0 -41.125 L 0 0 L 4.0625 0 L 4.0625 -31.984375 L 3.609375 -38.203125 L 10.59375 -15.671875 C 11.171875 -14.46875 12.375 -13.828125 13.328125 -13.828125 C 14.59375 -13.828125 15.671875 -14.65625 16.109375 -15.859375 L 23.34375 -37.75 Z M 22.90625 -31.984375 " />
      </g>
    </g>
  </g>
  <g fill="#000000" fill-opacity="1">
    <g transform="translate(255.214841, 203.999987)">
      <g>
        <path
          d="M 9.765625 0.375 C 11.609375 0.375 14.40625 -0.3125 15.671875 -2.796875 L 16.046875 0 L 19.609375 0 L 19.609375 -20.9375 C 19.609375 -26.390625 15.03125 -30.78125 9.765625 -30.78125 C 7.359375 -30.78125 4.625 -29.5625 2.671875 -27.796875 L 5.015625 -24.296875 C 6.59375 -25.828125 8.3125 -26.65625 9.765625 -26.65625 C 12.9375 -26.65625 15.546875 -24.109375 15.546875 -20.9375 L 15.671875 -18.078125 C 14.78125 -20.6875 11.796875 -21.578125 9.765625 -21.578125 C 4.4375 -21.578125 0 -17 0 -11.796875 L 0 -9.515625 C 0 -4.1875 4.4375 0.375 9.765625 0.375 Z M 4.0625 -9.515625 L 4.0625 -11.796875 C 4.0625 -14.96875 6.59375 -17.515625 9.765625 -17.515625 C 12.9375 -17.515625 15.546875 -15.796875 15.546875 -12.75 L 15.546875 -7.9375 C 15.546875 -5.203125 12.625 -3.6875 9.765625 -3.6875 C 6.59375 -3.6875 4.0625 -6.28125 4.0625 -9.515625 Z M 4.0625 -9.515625 " />
      </g>
    </g>
  </g>
  <g fill="#000000" fill-opacity="1">
    <g transform="translate(280.973659, 203.999987)">
      <g>
        <path
          d="M 0 0 L 4.0625 0 L 4.0625 -22.203125 C 4.375 -26.515625 9.078125 -27.796875 12.625 -25.703125 L 14.015625 -29.3125 C 12.0625 -30.390625 10.59375 -30.71875 9.265625 -30.71875 C 7.546875 -30.71875 5.203125 -29.953125 4.0625 -27.40625 L 3.609375 -30.328125 L 0 -30.328125 Z M 0 0 " />
      </g>
    </g>
  </g>
  <g fill="#000000" fill-opacity="1">
    <g transform="translate(298.421137, 203.999987)">
      <g>
        <path
          d="M 4.0625 -13.203125 L 5.078125 -13.203125 C 7.671875 -13.203125 10.09375 -12.1875 11.109375 -9.90625 L 15.671875 0 L 19.984375 0 L 14.78125 -11.546875 C 14.21875 -12.8125 12.5625 -14.84375 10.21875 -15.109375 C 12.4375 -15.484375 14.21875 -17.578125 14.78125 -18.90625 C 15.609375 -20.8125 16.75 -23.421875 17.765625 -25.640625 C 18.34375 -26.78125 19.609375 -29.5 20.046875 -30.515625 L 15.734375 -30.515625 L 11.109375 -20.5625 C 10.09375 -18.21875 7.671875 -17.203125 5.078125 -17.203125 L 4.0625 -17.203125 L 4.0625 -43.40625 L 0 -43.40625 L 0 0 L 4.0625 0 Z M 4.0625 -13.203125 " />
      </g>
    </g>
  </g>
  <g fill="#000000" fill-opacity="1">
    <g transform="translate(323.482049, 203.999987)">
      <g>
        <path
          d="M 19.15625 -21 C 19.15625 -26.453125 14.71875 -30.84375 9.390625 -30.84375 C 3.8125 -30.84375 -0.4375 -26.140625 -0.4375 -20.9375 L -0.4375 -9.515625 C -0.4375 -3.9375 4.0625 0.25 9.390625 0.25 C 12.25 0.25 15.859375 -0.828125 18.34375 -4.375 L 14.96875 -6.796875 C 13.453125 -4.703125 11.171875 -3.8125 9.390625 -3.8125 C 6.21875 -3.8125 3.609375 -6.34375 3.609375 -9.515625 L 3.609375 -11.671875 L 9.390625 -11.671875 C 14.65625 -11.671875 19.15625 -15.359375 19.15625 -21 Z M 9.390625 -15.171875 L 3.609375 -15.171875 L 3.609375 -20.875 C 3.609375 -24.109375 6.15625 -26.71875 9.390625 -26.71875 C 12.5625 -26.71875 15.109375 -24.171875 15.109375 -21 C 15.109375 -17.765625 12.5625 -15.171875 9.390625 -15.171875 Z M 9.390625 -15.171875 " />
      </g>
    </g>
  </g>
  <g fill="#000000" fill-opacity="1">
    <g transform="translate(348.733298, 203.999987)">
      <g>
        <path
          d="M 10.59375 -30.578125 L 4 -30.578125 L 4 -43.46875 L 0 -43.46875 L 0 -10.03125 C 0 -4.1875 5.203125 0 11.171875 0 L 11.171875 -4 C 7.296875 -4 4 -6.71875 4 -10.03125 L 4 -26.515625 L 10.59375 -26.515625 Z M 10.59375 -30.578125 " />
      </g>
    </g>
  </g>
</svg>